<svg width="129" height="102" viewBox="0 0 129 102" fill="none" xmlns="http://www.w3.org/2000/svg">
<path d="M99.0663 51.9881C97.1577 48.5129 88.2869 39.8584 79.0918 31.3533C83.082 27.5439 88.8471 28.7705 87.2314 26.2113C84.4638 21.8299 76.4422 21.2265 70.6673 23.6639C66.0638 19.5105 61.9223 15.8368 59.2393 13.4526C49.8653 5.12038 43.7464 4.49728 26.6909 4.49728C9.63539 4.49728 0 0 0 0C3.1253 9.46043 22.1327 10.9798 33.7199 12.1513C43.316 13.1223 53.3896 22.4491 61.8633 31.2746C57.9341 34.4078 54.3528 34.9287 52.2064 36.1061C48.171 38.3193 52.9375 40.5385 60.3577 40.4088C63.2373 40.3577 66.2073 39.597 68.9002 38.5277C77.9007 46.4844 93.5567 52.281 98.3075 70.4785C103.318 89.6687 113.397 101.985 113.397 101.985C107.801 95.0839 102.479 58.2033 99.0663 51.9881Z" fill="#00336B"/>
<mask id="mask0_1_2" style="mask-type:luminance" maskUnits="userSpaceOnUse" x="70" y="18" width="41" height="35">
<path d="M94.6812 20.7257L75.1415 34.4673C70.6451 37.6295 69.5635 43.838 72.7257 48.3345L72.7257 48.3345C75.8879 52.831 82.0965 53.9126 86.5929 50.7504L106.133 37.0088C110.629 33.8466 111.711 27.638 108.548 23.1416L108.548 23.1415C105.386 18.6451 99.1776 17.5635 94.6812 20.7257Z" fill="white"/>
</mask>
<g mask="url(#mask0_1_2)">
<path d="M94.6812 20.7257L75.1415 34.4673C70.6451 37.6295 69.5635 43.838 72.7257 48.3345L72.7257 48.3345C75.8879 52.831 82.0965 53.9126 86.5929 50.7504L106.133 37.0088C110.629 33.8466 111.711 27.638 108.548 23.1416L108.548 23.1415C105.386 18.6451 99.1776 17.5635 94.6812 20.7257Z" fill="#007AFF"/>
<path d="M85.2688 41.9469C86.1681 41.3144 86.3844 40.0727 85.752 39.1734C85.1196 38.2741 83.8779 38.0578 82.9786 38.6902C82.0793 39.3227 81.863 40.5644 82.4954 41.4637C83.1278 42.363 84.3696 42.5793 85.2688 41.9469Z" fill="white"/>
<path d="M91.7816 37.3664C92.6809 36.7339 92.8973 35.4922 92.2648 34.5929C91.6324 33.6936 90.3907 33.4773 89.4914 34.1097C88.5921 34.7422 88.3758 35.9839 89.0082 36.8832C89.6406 37.7825 90.8823 37.9988 91.7816 37.3664Z" fill="white"/>
<path d="M98.2956 32.7859C99.1949 32.1534 99.4113 30.9117 98.7788 30.0124C98.1464 29.1131 96.9047 28.8968 96.0054 29.5292C95.1061 30.1617 94.8898 31.4034 95.5222 32.3027C96.1546 33.202 97.3963 33.4183 98.2956 32.7859Z" fill="white"/>
</g>
</svg>
